<svg xmlns="http://www.w3.org/2000/svg" xmlns:xlink="http://www.w3.org/1999/xlink" width="500" zoomAndPan="magnify" viewBox="0 0 375 374.999991" height="500" preserveAspectRatio="xMidYMid meet" version="1.0"><defs><clipPath id="1c69e6f5c8"><path d="M 36.410156 141 L 253 141 L 253 357.742188 L 36.410156 357.742188 Z M 36.410156 141 " clip-rule="nonzero"/></clipPath><clipPath id="630f261c3c"><path d="M 122 17.257812 L 265 17.257812 L 265 159 L 122 159 Z M 122 17.257812 " clip-rule="nonzero"/></clipPath><clipPath id="777c9b82f1"><path d="M 224 113 L 338.589844 113 L 338.589844 228 L 224 228 Z M 224 113 " clip-rule="nonzero"/></clipPath><clipPath id="f2bf776c7b"><path d="M 59.414062 166 L 221.996094 166 L 221.996094 331.882812 L 59.414062 331.882812 Z M 59.414062 166 " clip-rule="nonzero"/></clipPath><clipPath id="03a9142c5d"><path d="M 166.785156 59.050781 L 221.261719 59.050781 L 221.261719 113.527344 L 166.785156 113.527344 Z M 166.785156 59.050781 " clip-rule="nonzero"/></clipPath></defs><g clip-path="url(#1c69e6f5c8)"><path fill="#ffffff" d="M 217.757812 205.460938 L 229.730469 182.515625 L 211.324219 164.113281 L 188.316406 176.117188 C 181.160156 171.828125 173.332031 168.550781 165.023438 166.484375 L 157.238281 141.714844 L 131.210938 141.714844 L 123.425781 166.484375 C 115.121094 168.550781 107.289062 171.828125 100.136719 176.117188 L 77.125 164.113281 L 58.722656 182.515625 L 70.691406 205.457031 C 66.351562 212.636719 63.039062 220.503906 60.945312 228.859375 L 36.316406 236.597656 L 36.316406 262.625 L 60.847656 270.335938 C 62.917969 278.769531 66.230469 286.710938 70.589844 293.960938 L 58.71875 316.707031 L 77.125 335.113281 L 99.804688 323.277344 C 107.082031 327.683594 115.0625 331.035156 123.542969 333.132812 L 131.207031 357.515625 L 157.230469 357.515625 L 164.894531 333.132812 C 173.375 331.035156 181.355469 327.683594 188.632812 323.277344 L 211.3125 335.113281 L 229.71875 316.707031 L 217.851562 293.960938 C 222.207031 286.710938 225.519531 278.769531 227.589844 270.335938 L 252.117188 262.625 L 252.117188 236.597656 L 227.492188 228.859375 C 225.414062 220.507812 222.101562 212.640625 217.757812 205.460938 Z M 144.226562 306.730469 C 112.78125 306.730469 87.296875 281.238281 87.296875 249.792969 C 87.296875 218.347656 112.78125 192.859375 144.226562 192.859375 C 175.667969 192.859375 201.160156 218.347656 201.160156 249.792969 C 201.160156 281.238281 175.667969 306.730469 144.226562 306.730469 Z M 144.226562 306.730469 " fill-opacity="1" fill-rule="nonzero"/></g><g clip-path="url(#630f261c3c)"><path fill="#ffffff" d="M 139.917969 105.011719 L 128.816406 117.648438 L 137.671875 132.234375 L 153.964844 128.226562 C 157.910156 132.164062 162.476562 135.542969 167.550781 138.195312 L 168.636719 154.917969 L 185.210938 158.964844 L 193.886719 144.628906 C 199.613281 144.613281 205.214844 143.71875 210.535156 142.050781 L 223.140625 153.117188 L 237.730469 144.257812 L 233.707031 127.925781 C 237.609375 123.988281 240.953125 119.445312 243.585938 114.398438 L 260.410156 113.300781 L 264.460938 96.730469 L 249.984375 87.96875 C 249.945312 82.320312 249.066406 76.792969 247.414062 71.546875 L 258.609375 58.796875 L 249.753906 44.210938 L 233.230469 48.273438 C 229.34375 44.433594 224.863281 41.125 219.894531 38.515625 L 218.792969 21.527344 L 202.214844 17.476562 L 193.402344 32.042969 C 187.789062 32.070312 182.292969 32.933594 177.070312 34.554688 L 164.285156 23.328125 L 149.699219 32.1875 L 153.757812 48.660156 C 149.871094 52.554688 146.539062 57.050781 143.90625 62.046875 L 127.019531 63.144531 L 122.96875 79.71875 L 137.394531 88.445312 C 137.398438 94.144531 138.269531 99.714844 139.917969 105.011719 Z M 157.425781 79.484375 C 162.316406 59.457031 182.515625 47.191406 202.542969 52.082031 C 222.566406 56.976562 234.835938 77.175781 229.941406 97.199219 C 225.050781 117.226562 204.851562 129.492188 184.824219 124.601562 C 164.800781 119.707031 152.527344 99.507812 157.425781 79.484375 Z M 157.425781 79.484375 " fill-opacity="1" fill-rule="nonzero"/></g><g clip-path="url(#777c9b82f1)"><path fill="#ffffff" d="M 326.128906 165.898438 C 325.667969 161.570312 324.582031 157.277344 322.835938 153.167969 L 330.714844 142.148438 L 322.542969 131.304688 L 309.78125 135.835938 C 306.3125 133.023438 302.488281 130.789062 298.457031 129.15625 L 296.238281 115.800781 L 282.796875 113.910156 L 276.996094 126.097656 C 272.636719 126.542969 268.320312 127.628906 264.183594 129.382812 L 253.226562 121.546875 L 242.382812 129.714844 L 246.871094 142.355469 C 244.007812 145.863281 241.738281 149.738281 240.082031 153.828125 L 226.878906 156.023438 L 224.984375 169.46875 L 237.03125 175.203125 C 237.484375 179.621094 238.589844 183.996094 240.375 188.1875 L 232.625 199.03125 L 240.792969 209.875 L 253.359375 205.417969 C 256.890625 208.292969 260.796875 210.566406 264.914062 212.21875 L 267.101562 225.386719 L 280.542969 227.277344 L 286.300781 215.195312 C 290.683594 214.734375 295.035156 213.621094 299.195312 211.839844 L 310.105469 219.644531 L 320.949219 211.472656 L 316.449219 198.785156 C 319.273438 195.289062 321.511719 191.441406 323.140625 187.375 L 336.457031 185.167969 L 338.347656 171.722656 Z M 299.460938 194.371094 C 286.355469 204.238281 267.742188 201.617188 257.871094 188.515625 C 248 175.414062 250.625 156.792969 263.726562 146.925781 C 276.832031 137.058594 295.449219 139.675781 305.320312 152.78125 C 315.183594 165.882812 312.5625 184.5 299.460938 194.371094 Z M 299.460938 194.371094 " fill-opacity="1" fill-rule="nonzero"/></g><path fill="#ffffff" d="M 140.476562 204.980469 C 116.332031 204.980469 96.6875 224.621094 96.6875 248.765625 C 96.6875 272.910156 116.332031 292.554688 140.476562 292.554688 C 164.621094 292.554688 184.261719 272.910156 184.261719 248.765625 C 184.261719 224.621094 164.621094 204.980469 140.476562 204.980469 Z M 163.375 237.613281 L 139.050781 261.9375 C 137.152344 263.835938 134.070312 263.835938 132.171875 261.9375 L 117.574219 247.339844 C 115.675781 245.441406 115.675781 242.363281 117.574219 240.460938 C 119.472656 238.5625 122.554688 238.5625 124.453125 240.460938 L 135.609375 251.617188 L 156.496094 230.730469 C 158.394531 228.832031 161.476562 228.832031 163.375 230.730469 C 165.277344 232.632812 165.277344 235.710938 163.375 237.613281 Z M 163.375 237.613281 " fill-opacity="1" fill-rule="nonzero"/><g clip-path="url(#f2bf776c7b)"><path fill="#ffffff" d="M 217.101562 248.765625 L 221.105469 232.613281 C 221.476562 231.117188 221.117188 229.53125 220.132812 228.34375 L 209.53125 215.511719 L 206.097656 199.226562 C 205.78125 197.71875 204.769531 196.453125 203.371094 195.808594 L 188.253906 188.855469 L 178.117188 175.65625 C 177.195312 174.453125 175.769531 173.753906 174.257812 173.753906 C 173.4375 173.753906 178.585938 173.675781 157.53125 174.046875 L 142.660156 166.574219 C 141.285156 165.886719 139.664062 165.886719 138.292969 166.574219 L 123.417969 174.046875 L 106.777344 173.753906 C 105.148438 173.734375 103.730469 174.484375 102.832031 175.65625 L 92.699219 188.855469 L 77.582031 195.808594 C 76.179688 196.453125 75.171875 197.71875 74.851562 199.226562 L 71.421875 215.511719 L 60.816406 228.34375 C 59.835938 229.53125 59.472656 231.117188 59.84375 232.613281 L 63.847656 248.765625 L 59.84375 264.921875 C 59.472656 266.417969 59.835938 268 60.816406 269.191406 L 71.421875 282.019531 L 74.851562 298.308594 C 75.171875 299.8125 76.179688 301.082031 77.578125 301.722656 L 92.699219 308.679688 L 102.832031 321.878906 C 103.753906 323.078125 105.179688 323.78125 106.691406 323.78125 C 107.515625 323.78125 102.363281 323.859375 123.417969 323.488281 L 138.292969 330.957031 C 139.671875 331.652344 141.292969 331.644531 142.660156 330.957031 L 157.53125 323.488281 L 174.171875 323.78125 C 175.800781 323.800781 177.21875 323.046875 178.117188 321.878906 L 188.253906 308.679688 L 203.371094 301.722656 C 204.769531 301.082031 205.78125 299.8125 206.097656 298.308594 L 209.527344 282.019531 L 220.132812 269.191406 C 221.113281 268 221.476562 266.417969 221.105469 264.921875 Z M 140.476562 302.285156 C 110.964844 302.285156 86.957031 278.277344 86.957031 248.765625 C 86.957031 219.257812 110.964844 195.25 140.476562 195.25 C 169.984375 195.25 193.992188 219.257812 193.992188 248.765625 C 193.992188 278.277344 169.984375 302.285156 140.476562 302.285156 Z M 140.476562 302.285156 " fill-opacity="1" fill-rule="nonzero"/></g><g clip-path="url(#03a9142c5d)"><path fill="#ffffff" d="M 194.175781 59.050781 C 209.242188 59.050781 221.570312 71.375 221.570312 86.441406 C 221.570312 101.507812 209.242188 113.832031 194.175781 113.832031 C 179.113281 113.832031 166.785156 101.507812 166.785156 86.441406 C 166.785156 71.375 179.113281 59.050781 194.175781 59.050781 Z M 194.175781 62.085938 C 180.78125 62.085938 169.820312 73.046875 169.820312 86.441406 C 169.820312 99.839844 180.78125 110.800781 194.175781 110.800781 C 207.574219 110.800781 218.535156 99.839844 218.535156 86.441406 C 218.535156 73.046875 207.574219 62.085938 194.175781 62.085938 " fill-opacity="1" fill-rule="evenodd"/></g><path fill="#ffffff" d="M 188.644531 90.640625 L 204.421875 74.863281 C 205.78125 73.503906 207.984375 73.503906 209.339844 74.863281 C 210.699219 76.222656 210.699219 78.425781 209.339844 79.78125 L 191.121094 98.003906 C 191.113281 98.007812 191.109375 98.015625 191.101562 98.019531 C 189.746094 99.378906 187.539062 99.378906 186.183594 98.019531 L 185.527344 97.363281 L 179.011719 90.851562 C 177.65625 89.492188 177.65625 87.289062 179.011719 85.933594 C 180.371094 84.574219 182.574219 84.574219 183.933594 85.933594 L 188.644531 90.640625 " fill-opacity="1" fill-rule="evenodd"/></svg> 